<?xml version="1.0" encoding="UTF-8"?>
<svg id="_レイヤー_1" xmlns="http://www.w3.org/2000/svg" xmlns:xlink="http://www.w3.org/1999/xlink" viewBox="0 0 1024 1024">
    <defs>
        <style>* {margin:0;} .cls-1{fill:#fff;}.cls-2{filter:url(#drop-shadow-1);}.cls-3{fill:url(#_名称未設定グラデーション_2);}</style>
        <linearGradient id="_名称未設定グラデーション_2" x1="0" y1="512" x2="1024" y2="512" gradientUnits="userSpaceOnUse">
            <stop offset="0" stop-color="#e7253e" />
            <stop offset="1" stop-color="#e62361" />
        </linearGradient>
        <filter id="drop-shadow-1" filterUnits="userSpaceOnUse">
            <feOffset dx="32" dy="32" />
            <feGaussianBlur result="blur" stdDeviation="0" />
            <feFlood flood-color="#040000" flood-opacity=".35" />
            <feComposite in2="blur" operator="in" />
            <feComposite in="SourceGraphic" />
        </filter>
    </defs>
    <rect class="cls-3" width="1024" height="1024" />
    <g class="cls-2">
        <path class="cls-1" d="M746.66,643.38l62.8-62.8v-118.77l-62.8-62.8,13.58-13.58,49.23,49.23V214.54H214.54v220.12l49.23-49.23,13.58,13.58-62.8,62.8v118.77l62.8,62.8-13.58,13.58-49.23-49.23v201.73H809.46v-201.73l-49.23,49.23-13.58-13.58Zm-336.38,75.7l-81-21.7-21.7-81,59.3-59.3,21.62,5.79c-.67,21.34,1.44,42.75,6.35,63.64,22.39,7.16,45.62,10.99,68.9,11.5l5.83,21.76-59.3,59.3Zm234.9-156.3c-66.63,66.63-162.31,86.53-246.28,59.69-18.64-79.28,2.95-166.09,64.77-227.91,58.12-58.12,138.34-80.68,213.62-67.68l-116.46,152.57,153.89-117.47c8.47,71.47-14.7,145.97-69.54,200.81Z" />
        <polygon class="cls-1" points="809.46 461.81 868.85 521.19 809.46 580.58 809.46 607.73 896 521.19 809.46 434.65 809.46 461.81" />
        <polygon class="cls-1" points="155.15 521.19 214.54 461.81 214.54 434.65 128 521.19 214.54 607.73 214.54 580.58 155.15 521.19" />
    </g>
</svg>